<?xml version="1.0"?>
<!DOCTYPE svg PUBLIC "-//W3C//DTD SVG 1.0//EN"
	"http://www.w3.org/TR/2001/REC-SVG-20010904/DTD/svg10.dtd">
<svg xmlns:x="http://ns.adobe.com/Extensibility/1.0/"
	xmlns:i="http://ns.adobe.com/AdobeIllustrator/10.0/" xmlns:graph=""
	xmlns="http://www.w3.org/2000/svg" xmlns:xlink="http://www.w3.org/1999/xlink"
	xmlns:a="http://ns.adobe.com/AdobeSVGViewerExtensions/3.0/" width="123"
	height="98" viewBox="0 0.446 123 98" overflow="visible"
	enable-background="new 0 0.446 123 98" xml:space="preserve">
	<g id="Layer_1_2_">
		<g>
			<linearGradient id="XMLID_1_" gradientUnits="userSpaceOnUse" x1="61.438"
				y1="108.408" x2="61.438" y2="14.172">
				<stop offset="0" style="stop-color:rgb(158,158,158)"/>
				<stop offset="1" style="stop-color:rgb(97,97,97)"/>
			</linearGradient>
			<path
				d="M12.371 0 C5.551 0 0 5.342 0 11.91 L0 86.774 C0 93.342 5.551 98.687 12.371 98.687
					L110.504 98.687 C117.33 98.687 122.875 93.342 122.875 86.774 L122.875 11.91
					C122.875 5.342 117.33 0 110.504 0 L12.371 0 M2.942 86.774 L2.942 11.91 C2.942
					6.904 7.172 2.832 12.371 2.832 L110.504 2.832 C115.705 2.832 119.934 6.904
					119.934 11.91 L119.934 86.774 C119.934 91.781 115.705 95.852 110.504 95.852
					L12.371 95.852 C7.172 95.852 2.942 91.781 2.942 86.774 z"
				 style="fill:url(#XMLID_1_)"/>
			<linearGradient id="XMLID_2_" gradientUnits="userSpaceOnUse" x1="60.4219"
				y1="75.4966" x2="64.989" y2="-41.8414">
				<stop offset="0.0337" style="stop-color:rgb(255,255,255)"/>
				<stop offset="1" style="stop-color:rgb(178,178,178)"/>
			</linearGradient>
			<path
				d="M121.406 86.774 C121.406 92.572 116.527 97.269 110.504 97.269 L12.371 97.269 C6.353
					97.269 1.473 92.572 1.473 86.774 L1.473 11.91 C1.473 6.115 6.353 1.414 12.371
					1.414 L110.504 1.414 C116.527 1.414 121.406 6.114 121.406 11.91 z"
				 style="fill:url(#XMLID_2_)"/>
			<linearGradient id="XMLID_3_" gradientUnits="userSpaceOnUse" x1="44.5576"
				y1="32.4619" x2="125.029" y2="112.933">
				<stop offset="0.0337" style="stop-color:rgb(255,255,255)"/>
				<stop offset="1" style="stop-color:rgb(178,178,178)"/>
			</linearGradient>
			<path
				d="M120.234 86.029 C120.234 91.666 115.486 96.232 109.632 96.232 L13.244 96.232 C7.389
					96.232 2.642 91.666 2.642 86.029 L2.642 12.656 C2.642 7.02 7.389 2.451 13.244
					2.451 L109.633 2.451 C115.487 2.451 120.235 7.02 120.235 12.656 L120.235
					86.029 z"
				 style="fill:url(#XMLID_3_)"/>
			<linearGradient id="XMLID_4_" gradientUnits="userSpaceOnUse" x1="1.7759"
				y1="-27.1758" x2="1.7759" y2="61.2293">
				<stop offset="6.89655%" style="stop-color:rgb(255,255,255)"/>
				<stop offset="100%" style="stop-opacity:0;stop-color:rgb(255,255,255)"/>
			</linearGradient>
			<path a:adobe-blending-mode="screen"
				d="M0.91 64.311 C0.91 68.28 1.432 72.132 2.402 75.803 C2.477 75.816 2.563 75.83 2.642
					75.846 L2.642 31.444 C1.524 35.367 0.91 60.037 0.91 64.311 z"
				 style="fill:url(#XMLID_4_)"/>
			<linearGradient id="XMLID_5_" gradientUnits="userSpaceOnUse" x1="61.7896"
				y1="0.0298" x2="61.7895" y2="64.3122">
				<stop offset="3.44828%" style="stop-color:rgb(255,255,255)"/>
				<stop offset="100%" style="stop-opacity:0;stop-color:rgb(255,255,255)"/>
			</linearGradient>
			<path a:adobe-blending-mode="screen"
				d="M108.854 3.432 L14.724 3.432 C9.08 3.432 4.509 7.832 4.509 13.265 L4.509 74.892 C11.932
					76.197 39.169 80.809 58.797 55.34 C82.205 24.965 110.606 28.521 119.07
					26.405 L119.07 13.264 C119.07 7.832 114.494 3.432 108.854 3.432 z"
				 style="fill:url(#XMLID_5_)"/>
			<radialGradient id="XMLID_6_" cx="-11.835" cy="103.686" r="63.2939"
				fx="-11.835" fy="103.686"
				gradientTransform="matrix(1.0388 0 0 1 70.1855 0)"
				gradientUnits="userSpaceOnUse">
				<stop offset="0" style="stop-color:rgb(133,133,133)"/>
				<stop offset="1" style="stop-color:rgb(0,0,0)"/>
				<a:midPointStop offset="0" style="stop-color:#858585"/>
				<a:midPointStop offset="0.5" style="stop-color:#858585"/>
				<a:midPointStop offset="1" style="stop-color:#000000"/>
			</radialGradient>
			<path
				d="M109.994 85.749 L12.624 85.749 L12.624 12.951 L109.995 12.951 L109.995 85.749 z"
				
				 style="fill:url(#XMLID_6_)"/>
			<linearGradient id="XMLID_7_" gradientUnits="userSpaceOnUse" x1="61.3638"
				y1="65.1948" x2="61.3638" y2="-30.8554">
				<stop offset="0" style="stop-color:rgb(204,204,204)"/>
				<stop offset="1" style="stop-color:rgb(97,97,97)"/>
			</linearGradient>
			<path
				d="M110.104 12.919 L12.624 12.919 L12.624 85.575 L14.259 85.575 L14.259 14.534 L110.104
					14.534 z"
				 style="fill:url(#XMLID_7_)"/>
			<path
				d="M108.625 12.913 L108.625 84.112 L12.617 84.112 L12.617 85.727 L108.625 85.727 L108.625
					85.773 L110.258 85.773 L110.258 12.913 z"
				 style="fill:rgb(255,255,255)"/>
			<g>
				<path
					d="M18.719 37.143 L32.211 31.956 L18.719 26.748 L18.719 19.815 L40.919 29.013 L40.919
						34.869 L18.719 44.032 z"
					 style="fill:rgb(237,255,255)"/>
				<path d="M42.757 47.343 L63.265 47.343 L63.265 50.89 L42.757 50.89 z"
					 style="fill:rgb(237,255,255)"/>
			</g>
			<linearGradient id="XMLID_8_" gradientUnits="userSpaceOnUse" x1="61.4478"
				y1="-11.3657" x2="61.4478" y2="52.4684">
				<stop offset="2.87356%" style="stop-color:rgb(255,255,255)"/>
				<stop offset="100%" style="stop-opacity:0;stop-color:rgb(255,255,255)"/>
			</linearGradient>
			<path a:adobe-blending-mode="screen"
				d="M15.478 28.11 C15.478 43.072 37.454 55.206 64.56 55.206 C91.672 55.206 107.418 43.072
					107.418 28.11 C107.418 23.112 104.953 18.434 100.672 14.41 L22.218 14.41
					C17.938 18.434 15.478 23.112 15.478 28.11 z"
				 style="fill:url(#XMLID_8_)"/>
		</g>
	</g>
</svg>
