<?xml version="1.0" encoding="UTF-8" standalone="no"?>
<!-- Created with Inkscape (http://www.inkscape.org/) -->
<svg
   xmlns:dc="http://purl.org/dc/elements/1.1/"
   xmlns:cc="http://web.resource.org/cc/"
   xmlns:rdf="http://www.w3.org/1999/02/22-rdf-syntax-ns#"
   xmlns:svg="http://www.w3.org/2000/svg"
   xmlns="http://www.w3.org/2000/svg"
   xmlns:xlink="http://www.w3.org/1999/xlink"
   xmlns:sodipodi="http://sodipodi.sourceforge.net/DTD/sodipodi-0.dtd"
   xmlns:inkscape="http://www.inkscape.org/namespaces/inkscape"
   width="128"
   height="128"
   id="svg2"
   sodipodi:version="0.32"
   inkscape:version="0.45.1"
   version="1.0"
   sodipodi:docbase="/home/david/Desktop"
   sodipodi:docname="format-text-bold.svgz"
   inkscape:output_extension="org.inkscape.output.svgz.inkscape"
   inkscape:export-filename="/home/david/Desktop/format-text-bold.png"
   inkscape:export-xdpi="11.25"
   inkscape:export-ydpi="11.25">
  <defs
     id="defs4">
    <linearGradient
       inkscape:collect="always"
       id="linearGradient3236">
      <stop
         style="stop-color:#2e3436;stop-opacity:1"
         offset="0"
         id="stop3238" />
      <stop
         style="stop-color:#888a85;stop-opacity:1"
         offset="1"
         id="stop3240" />
    </linearGradient>
    <linearGradient
       inkscape:collect="always"
       id="linearGradient3213">
      <stop
         style="stop-color:#ffffff;stop-opacity:1;"
         offset="0"
         id="stop3215" />
      <stop
         style="stop-color:#ffffff;stop-opacity:0;"
         offset="1"
         id="stop3217" />
    </linearGradient>
    <linearGradient
       inkscape:collect="always"
       id="linearGradient3203">
      <stop
         style="stop-color:#d6d6d6;stop-opacity:1"
         offset="0"
         id="stop3205" />
      <stop
         style="stop-color:#dddddd;stop-opacity:0;"
         offset="1"
         id="stop3207" />
    </linearGradient>
    <linearGradient
       inkscape:collect="always"
       id="linearGradient3183">
      <stop
         style="stop-color:#323232;stop-opacity:1;"
         offset="0"
         id="stop3185" />
      <stop
         style="stop-color:#888a85;stop-opacity:1"
         offset="1"
         id="stop3187" />
    </linearGradient>
    <linearGradient
       inkscape:collect="always"
       xlink:href="#linearGradient3183"
       id="linearGradient3189"
       x1="82.531303"
       y1="117.06476"
       x2="82.531303"
       y2="10.50423"
       gradientUnits="userSpaceOnUse"
       gradientTransform="matrix(1.0769231,0,0,1.0769231,-4.923077,-4.923077)" />
    <linearGradient
       inkscape:collect="always"
       xlink:href="#linearGradient3203"
       id="linearGradient3209"
       x1="62.483925"
       y1="134.93735"
       x2="62.483925"
       y2="-58.093334"
       gradientUnits="userSpaceOnUse"
       gradientTransform="matrix(1.0980392,0,0,1.0580694,-6.2745098,-1.7549023)" />
    <radialGradient
       inkscape:collect="always"
       xlink:href="#linearGradient3213"
       id="radialGradient3228"
       gradientUnits="userSpaceOnUse"
       gradientTransform="matrix(1.1609275,0,0,14.883897,-10.299359,-1749.3991)"
       cx="64"
       cy="113.23757"
       fx="64"
       fy="113.23757"
       r="56" />
    <linearGradient
       inkscape:collect="always"
       xlink:href="#linearGradient3236"
       id="linearGradient3242"
       x1="59.993233"
       y1="25.989847"
       x2="59.993233"
       y2="107.8762"
       gradientUnits="userSpaceOnUse"
       gradientTransform="translate(-4,0)" />
    <radialGradient
       inkscape:collect="always"
       xlink:href="#linearGradient3213"
       id="radialGradient3272"
       gradientUnits="userSpaceOnUse"
       gradientTransform="matrix(0.1370521,-0.157048,-1.7630093,-1.5385365,209.11838,186.98771)"
       cx="15.697902"
       cy="117.03832"
       fx="15.697902"
       fy="117.03832"
       r="56" />
    <filter
       inkscape:collect="always"
       x="-0.12"
       width="1.24"
       y="-0.12"
       height="1.24"
       id="filter3274">
      <feGaussianBlur
         inkscape:collect="always"
         stdDeviation="0.7109375"
         id="feGaussianBlur3276" />
    </filter>
    <radialGradient
       inkscape:collect="always"
       xlink:href="#linearGradient3213"
       id="radialGradient3289"
       gradientUnits="userSpaceOnUse"
       gradientTransform="matrix(0.1370521,-0.157048,-1.7630093,-1.5385365,217.11838,194.98771)"
       cx="15.697902"
       cy="117.03832"
       fx="15.697902"
       fy="117.03832"
       r="56" />
    <radialGradient
       inkscape:collect="always"
       xlink:href="#linearGradient3213"
       id="radialGradient3295"
       gradientUnits="userSpaceOnUse"
       gradientTransform="matrix(0.1370521,-0.157048,-1.7630093,-1.5385365,217.11838,194.98771)"
       cx="15.697902"
       cy="117.03832"
       fx="15.697902"
       fy="117.03832"
       r="56" />
    <radialGradient
       inkscape:collect="always"
       xlink:href="#linearGradient3213"
       id="radialGradient3297"
       gradientUnits="userSpaceOnUse"
       gradientTransform="matrix(0.1370521,-0.157048,-1.7630093,-1.5385365,217.11838,194.98771)"
       cx="15.697902"
       cy="117.03832"
       fx="15.697902"
       fy="117.03832"
       r="56" />
    <linearGradient
       inkscape:collect="always"
       xlink:href="#linearGradient3236"
       id="linearGradient3163"
       gradientUnits="userSpaceOnUse"
       gradientTransform="translate(-4,4)"
       x1="59.993233"
       y1="25.989847"
       x2="59.993233"
       y2="107.8762" />
    <linearGradient
       inkscape:collect="always"
       xlink:href="#linearGradient3236"
       id="linearGradient3167"
       gradientUnits="userSpaceOnUse"
       gradientTransform="translate(-4,0)"
       x1="59.993233"
       y1="25.989847"
       x2="59.993233"
       y2="107.8762" />
  </defs>
  <sodipodi:namedview
     id="base"
     pagecolor="#ffffff"
     bordercolor="#666666"
     borderopacity="1.0"
     gridtolerance="10000"
     guidetolerance="10"
     objecttolerance="10"
     inkscape:pageopacity="0.0"
     inkscape:pageshadow="2"
     inkscape:zoom="4.6328125"
     inkscape:cx="64"
     inkscape:cy="64"
     inkscape:document-units="px"
     inkscape:current-layer="layer1"
     width="128px"
     height="128px"
     showgrid="false"
     gridspacingx="8px"
     gridspacingy="8px"
     showborder="false"
     gridempspacing="2"
     inkscape:showpageshadow="false"
     borderlayer="true"
     inkscape:window-width="794"
     inkscape:window-height="704"
     inkscape:window-x="13"
     inkscape:window-y="37" />
  <metadata
     id="metadata7">
    <rdf:RDF>
      <cc:Work
         rdf:about="">
        <dc:format>image/svg+xml</dc:format>
        <dc:type
           rdf:resource="http://purl.org/dc/dcmitype/StillImage" />
      </cc:Work>
    </rdf:RDF>
  </metadata>
  <g
     inkscape:label="Layer 1"
     inkscape:groupmode="layer"
     id="layer1">
    <rect
       ry="5.7779021"
       rx="5.7779021"
       y="8"
       x="8"
       height="112"
       width="112"
       id="rect3181"
       style="opacity:1;fill:#323232;fill-opacity:1;stroke:url(#linearGradient3189);stroke-width:16;stroke-linecap:round;stroke-linejoin:round;stroke-miterlimit:4;stroke-dasharray:none;stroke-dashoffset:0.65000001;stroke-opacity:1" />
    <rect
       ry="5.7779021"
       rx="5.7779021"
       y="-120"
       x="8"
       height="112"
       width="112"
       id="rect3226"
       style="opacity:0.64480878;fill:none;fill-opacity:1;stroke:url(#radialGradient3228);stroke-width:16;stroke-linecap:round;stroke-linejoin:round;stroke-miterlimit:4;stroke-dasharray:none;stroke-dashoffset:0.65000001;stroke-opacity:1"
       transform="scale(1,-1)" />
    <path
       style="opacity:0.6;fill:none;fill-opacity:1;stroke:url(#radialGradient3272);stroke-width:8;stroke-linecap:round;stroke-linejoin:round;stroke-miterlimit:4;stroke-dasharray:none;stroke-dashoffset:0.65000001;stroke-opacity:1;filter:url(#filter3274)"
       d="M 10.78125,5 C 7.580293,5 5,7.580292 5,10.78125 L 5,11.21875 C 8.225943,10.77685 10.77685,8.225943 11.21875,5 L 10.78125,5 z "
       id="rect3264" />
    <path
       id="path3287"
       d="M 18.78125,13 C 15.580293,13 13,15.580292 13,18.78125 L 13,19.21875 C 16.225943,18.77685 18.77685,16.225943 19.21875,13 L 18.78125,13 z "
       style="opacity:0.6;fill:none;fill-opacity:1;stroke:url(#radialGradient3289);stroke-width:8;stroke-linecap:round;stroke-linejoin:round;stroke-miterlimit:4;stroke-dasharray:none;stroke-dashoffset:0.65000001;stroke-opacity:1;filter:url(#filter3274)"
       transform="matrix(-1,0,0,1,136,-8)" />
    <rect
       style="opacity:1;fill:#ffffff;fill-opacity:1;stroke:none;stroke-width:0.5;stroke-linecap:round;stroke-linejoin:round;stroke-miterlimit:4;stroke-dasharray:none;stroke-dashoffset:0.65000001;stroke-opacity:1"
       id="rect3177"
       width="112"
       height="112"
       x="8"
       y="8"
       rx="5.7779016"
       ry="5.7779016" />
    <path
       id="path3291"
       d="M 18.78125,13 C 15.580293,13 13,15.580292 13,18.78125 L 13,19.21875 C 16.225943,18.77685 18.77685,16.225943 19.21875,13 L 18.78125,13 z "
       style="opacity:0.2786885;fill:none;fill-opacity:1;stroke:url(#radialGradient3295);stroke-width:8;stroke-linecap:round;stroke-linejoin:round;stroke-miterlimit:4;stroke-dasharray:none;stroke-dashoffset:0.65000001;stroke-opacity:1;filter:url(#filter3274)"
       transform="matrix(1,0,0,-1,-8,136.21875)" />
    <path
       transform="matrix(-1,0,0,-1,136,136.21875)"
       style="opacity:0.2786885;fill:none;fill-opacity:1;stroke:url(#radialGradient3297);stroke-width:8;stroke-linecap:round;stroke-linejoin:round;stroke-miterlimit:4;stroke-dasharray:none;stroke-dashoffset:0.65000001;stroke-opacity:1;filter:url(#filter3274)"
       d="M 18.78125,13 C 15.580293,13 13,15.580292 13,18.78125 L 13,19.21875 C 16.225943,18.77685 18.77685,16.225943 19.21875,13 L 18.78125,13 z "
       id="path3293" />
    <rect
       ry="5.7779016"
       rx="5.7779016"
       y="12"
       x="8"
       height="107.92308"
       width="112"
       id="rect3201"
       style="opacity:1;fill:url(#linearGradient3209);fill-opacity:1;stroke:none;stroke-width:0.5;stroke-linecap:round;stroke-linejoin:round;stroke-miterlimit:4;stroke-dasharray:none;stroke-dashoffset:0.65000001;stroke-opacity:1" />
    <path
       style="font-size:144px;font-style:normal;font-weight:bold;fill:url(#linearGradient3242);fill-opacity:1;stroke:none;stroke-width:1px;stroke-linecap:butt;stroke-linejoin:miter;stroke-opacity:1;font-family:Liberation Sans"
       d="M 104.10118,81.1753 C 104.1011,85.225472 103.27483,88.707845 101.62239,91.622425 C 99.969787,94.49918 97.702382,96.864926 94.820155,98.719655 C 91.976201,100.53656 88.651949,101.88029 84.847371,102.75089 C 81.04267,103.58364 77.007447,104 72.741687,104 L 24.330523,104 L 24.330523,24 L 65.832946,24 C 70.63674,24.000079 77.061063,24.41645 80.788899,25.249112 C 84.555051,26.04408 85.567065,27.274266 88.141994,28.939673 C 90.716788,30.60523 92.657534,32.706009 93.964253,35.242015 C 95.309252,37.740307 95.981796,40.692752 95.981866,44.099361 C 95.981796,48.641645 94.694359,52.483609 92.119578,55.625265 C 89.583084,58.729166 89.151552,60.829945 83.925033,61.927607 C 90.496624,62.684686 95.492616,64.728688 98.913022,68.059616 C 102.37172,71.352764 104.1011,75.724654 104.10118,81.1753 M 79.942418,46.370474 C 79.942361,42.774604 78.770224,40.219604 76.426006,38.705463 C 74.120109,37.191455 70.680562,36.434417 66.107352,36.434349 L 40.469797,36.434349 L 40.469797,56.249822 L 66.222644,56.249822 C 71.026437,56.249869 74.504416,55.436054 76.65659,53.808375 C 78.847085,52.142942 79.942361,49.663645 79.942418,46.370474 M 88.120833,83.754739 C 88.120767,81.635058 87.698034,79.856021 86.852615,78.417621 C 86.007081,76.979279 84.834944,75.824798 83.336206,74.954171 C 81.875781,74.083611 80.146399,73.459056 78.148055,73.080502 C 76.188038,72.702019 74.055134,72.512759 71.749337,72.512723 L 40.469797,72.512723 L 40.469797,91.565649 L 72.383445,91.565649 C 74.612378,91.565659 76.687636,91.395327 78.609225,91.054647 C 80.530706,90.676142 82.183227,90.051586 83.56679,89.180978 C 84.988668,88.272547 86.103159,87.061289 86.910267,85.547195 C 87.717251,84.033139 88.120767,86.025875 88.120833,83.754739"
       id="text3230"
       sodipodi:nodetypes="cccccccccscscccccccccccccsccccccccsc" />
    <path
       style="font-size:144px;font-style:normal;font-weight:bold;fill:#ffffff;fill-opacity:1;stroke:none;stroke-width:1px;stroke-linecap:butt;stroke-linejoin:miter;stroke-opacity:1;font-family:Liberation Sans"
       d="M 40.46875 36.4375 L 40.46875 40.4375 L 66.09375 40.4375 C 70.66696 40.437568 74.131606 41.204742 76.4375 42.71875 C 78.326518 43.938876 79.414403 45.834362 79.78125 48.40625 C 79.886192 47.763454 79.937488 47.095771 79.9375 46.375 C 79.93744 42.779128 78.781718 40.232891 76.4375 38.71875 C 74.131606 37.204742 70.66696 36.437568 66.09375 36.4375 L 40.46875 36.4375 z M 95.875 46.0625 C 95.551935 49.76096 94.321065 52.94544 92.125 55.625 C 89.588508 58.728903 89.164019 60.839838 83.9375 61.9375 C 85.948027 62.169122 87.784427 62.527464 89.5 63 C 90.338026 62.048066 91.055738 60.933456 92.125 59.625 C 94.699781 56.483344 95.968681 52.636034 95.96875 48.09375 C 95.968736 47.394894 95.931617 46.723129 95.875 46.0625 z M 40.46875 68.625 L 40.46875 72.625 L 71.75 72.625 C 74.055797 72.625036 76.196232 72.809015 78.15625 73.1875 C 80.154594 73.566054 81.883326 74.191942 83.34375 75.0625 C 84.842488 75.933127 85.998216 77.092905 86.84375 78.53125 C 87.416772 79.506193 87.784092 80.649573 87.96875 81.9375 C 88.052896 81.283113 88.124979 80.608317 88.125 79.875 C 88.124933 77.755321 87.689169 75.96965 86.84375 74.53125 C 85.998216 73.092905 84.842488 71.933127 83.34375 71.0625 C 81.883326 70.191942 80.154594 69.566054 78.15625 69.1875 C 76.196232 68.809015 74.055797 68.625036 71.75 68.625 L 40.46875 68.625 z M 104.03125 83.1875 C 103.79685 86.383711 102.99473 89.209057 101.625 91.625 C 99.972396 94.501759 97.694727 96.86402 94.8125 98.71875 C 91.968549 100.53565 88.648328 101.8794 84.84375 102.75 C 81.039046 103.58275 77.01576 104 72.75 104 L 24.34375 104 L 24.34375 108 L 72.75 108 C 77.01576 108 81.039046 107.58275 84.84375 106.75 C 88.648328 105.8794 91.968549 104.53565 94.8125 102.71875 C 97.694727 100.86402 99.972396 98.501759 101.625 95.625 C 103.27744 92.71042 104.09367 89.237671 104.09375 85.1875 C 104.09374 84.506169 104.0853 83.83512 104.03125 83.1875 z "
       id="path3161" />
  </g>
</svg>
